# xmcd
# 
# Track frame offsets:
#     150
#     19675
#     37852
#     56767
#     79327
#     98637
#     118815
#     136667
#     154897
#     176282
#     190977
#     212170
#     234310
#     255277
#     272797
#     294430
#     313290
# 
# Disc length: 4467
# 
# Revision: 2
# Processed by: cddbd v1.5.2PL0 Copyright (c) Steve Scherf et al.
# Submitted via: fre:ac v1.0.31
# 
DISCID=e6117111
DTITLE=Various Artist - ヒット・カーニバル4
DYEAR=0
DGENRE=
TTITLE0=ジョー山中/「人間の証明」のテーマ
TTITLE1=石川セリ/ダンスはうまく踊れない
TTITLE2=牧村三枝子/みちづれ
TTITLE3=狩人/あずさ2号
TTITLE4=さだまさし/秋桜
TTITLE5=研なおこ/かもめはかもめ
TTITLE6=サーカス/Mr.サマータイム
TTITLE7=さとう宗幸/青葉城恋唄
TTITLE8=BORO/大阪で生まれた女
TTITLE9=ロス・インディオス&シルビア/別れても好きな人
TTITLE10=松山千春/恋
TTITLE11=喜納昌吉&チャンプル-ズ/すべての人の心に花を
TTITLE12=欧陽フィーフィー/ラブ・イズ・オーヴァー
TTITLE13=テレサ・テン/つぐない
TTITLE14=小林旭/熱き心に
TTITLE15=テレサ・テン/時の流れに身をまかせ
TTITLE16=加藤登紀子/百万本のバラ
EXTD=
EXTT0=
EXTT1=
EXTT2=
EXTT3=
EXTT4=
EXTT5=
EXTT6=
EXTT7=
EXTT8=
EXTT9=
EXTT10=
EXTT11=
EXTT12=
EXTT13=
EXTT14=
EXTT15=
EXTT16=
PLAYORDER=
